<svg width="100" height="44" viewBox="0 0 100 44" xmlns="http://www.w3.org/2000/svg">
  <rect y="2" width="40" height="40" rx="10" fill="#6366F1"/>
  <path d="M9,7 L20,33 L31,7" transform="translate(0,2)" stroke="#FFFFFF" stroke-width="3.5" fill="none" stroke-linecap="butt" stroke-linejoin="miter"/>
  <path d="M56.53 31L52.44 15.6L55.17 15.6L58.64 29.31L58.95 29.31L62.45 15.6L65.18 15.6L61.06 31Z M70.07 31.31Q68.92 31.31 68 30.9Q67.08 30.49 66.54 29.72Q66 28.95 66 27.83Q66 26.73 66.54 25.98Q67.08 25.24 68.02 24.85Q68.97 24.47 70.18 24.47L73.32 24.47L73.32 23.81Q73.32 22.95 72.8 22.41Q72.27 21.87 71.15 21.87Q70.05 21.87 69.49 22.39Q68.92 22.9 68.75 23.72L66.42 22.95Q66.68 22.09 67.26 21.39Q67.85 20.68 68.81 20.25Q69.78 19.82 71.19 19.82Q73.32 19.82 74.55 20.89Q75.77 21.96 75.77 23.98L75.77 28.25Q75.77 28.91 76.38 28.91L77.31 28.91L77.31 31L75.52 31Q74.73 31 74.23 30.6Q73.72 30.21 73.72 29.53L73.72 29.48L73.35 29.48Q73.21 29.79 72.88 30.23Q72.55 30.67 71.88 30.99Q71.21 31.31 70.07 31.31ZM70.49 29.24Q71.74 29.24 72.53 28.53Q73.32 27.81 73.32 26.6L73.32 26.38L70.33 26.38Q69.52 26.38 69.01 26.73Q68.51 27.08 68.51 27.77Q68.51 28.43 69.03 28.83Q69.56 29.24 70.49 29.24Z M78.9 31L78.9 15.6L81.43 15.6L81.43 24.25L81.8 24.25L85.72 20.13L89.04 20.13L83.78 25.39L89.21 31L85.94 31L81.8 26.58L81.43 26.58L81.43 31Z M94.81 31Q93.75 31 93.13 30.37Q92.5 29.75 92.5 28.67L92.5 22.22L89.66 22.22L89.66 20.13L92.5 20.13L92.5 16.63L95.03 16.63L95.03 20.13L98.15 20.13L98.15 22.22L95.03 22.22L95.03 28.25Q95.03 28.91 95.64 28.91L97.82 28.91L97.82 31Z" fill="#F0EDE8"/>
</svg>
