<svg width="256" height="256" viewBox="0 0 64 64" fill="none" xmlns="http://www.w3.org/2000/svg">
  <defs>
    <linearGradient id="shield" x1="7" y1="3" x2="57" y2="61" gradientUnits="userSpaceOnUse">
      <stop stop-color="#3B82F6"/>
      <stop offset="1" stop-color="#1D4ED8"/>
    </linearGradient>
    <linearGradient id="shieldGlow" x1="10" y1="6" x2="54" y2="58" gradientUnits="userSpaceOnUse">
      <stop stop-color="#ffffff" stop-opacity="0.22"/>
      <stop offset="1" stop-color="#ffffff" stop-opacity="0"/>
    </linearGradient>
  </defs>

  <!-- Shield body -->
  <path d="M32 3L7 13v19c0 15 11 25.5 25 29 14-3.5 25-14 25-29V13L32 3z" fill="url(#shield)"/>
  <!-- Shield inner highlight -->
  <path d="M32 6L10 15v17c0 13 9.5 22.5 22 26 12.5-3.5 22-13 22-26V15L32 6z" fill="url(#shieldGlow)"/>

  <!-- Root node -->
  <circle cx="32" cy="18" r="5.5" fill="#ffffff" opacity="0.95"/>
  <circle cx="32" cy="18" r="3.5" fill="#60A5FA"/>

  <!-- Tree lines -->
  <line x1="29" y1="22" x2="20" y2="31" stroke="#ffffff" stroke-width="1.8" stroke-linecap="round" opacity="0.6"/>
  <line x1="35" y1="22" x2="44" y2="31" stroke="#ffffff" stroke-width="1.8" stroke-linecap="round" opacity="0.6"/>
  <line x1="32" y1="23" x2="32" y2="31" stroke="#ffffff" stroke-width="1.8" stroke-linecap="round" opacity="0.6"/>

  <!-- Left child node -->
  <circle cx="20" cy="34" r="4" fill="#ffffff" opacity="0.7"/>
  <!-- Center child node -->
  <circle cx="32" cy="34" r="4" fill="#ffffff" opacity="0.7"/>
  <!-- Right child node — green / healthy -->
  <circle cx="44" cy="34" r="5" fill="#10B981"/>
  <path d="M41.5 34l2 2 3.5-3.5" stroke="#ffffff" stroke-width="1.8" stroke-linecap="round" stroke-linejoin="round"/>

  <!-- EKG / pulse line -->
  <path d="M11 47h6l2.5-6 4.5 12 3.5-9 2.5 5h5h10" stroke="#7DFFB3" stroke-width="2.2" stroke-linecap="round" stroke-linejoin="round" opacity="0.9"/>
</svg>
